<?xml version="1.0" standalone="no"?>
<!DOCTYPE svg PUBLIC "-//W3C//DTD SVG 20010904//EN"
 "http://www.w3.org/TR/2001/REC-SVG-20010904/DTD/svg10.dtd">
<svg version="1.0" xmlns="http://www.w3.org/2000/svg"
 width="842.000000pt" height="296.000000pt" viewBox="0 0 842.000000 296.000000"
 preserveAspectRatio="xMidYMid meet">

<g transform="translate(0.000000,296.000000) scale(0.100000,-0.100000)"
fill="#000000" stroke="none">
<path d="M2613 1869 c-34 -12 -28 -23 20 -37 29 -8 49 -22 65 -44 21 -32 22
-32 22 -8 -1 26 -44 83 -70 92 -8 3 -25 2 -37 -3z"/>
<path d="M2728 1823 c23 -39 38 -51 82 -69 69 -28 124 -74 152 -127 20 -38 23
-40 26 -18 7 43 -37 139 -81 176 -22 19 -46 35 -54 35 -7 0 -38 11 -69 25 -81
36 -88 33 -56 -22z"/>
<path d="M2530 1728 c-52 -15 -117 -72 -140 -125 -30 -68 -51 -135 -45 -141 3
-3 18 4 34 15 27 20 110 45 196 58 86 13 94 16 116 51 17 28 20 46 17 86 -3
27 -12 54 -19 59 -18 11 -115 10 -159 -3z"/>
<path d="M3010 1580 c0 -49 4 -90 9 -90 16 0 66 25 89 45 41 36 18 92 -49 119
-22 9 -42 16 -44 16 -3 0 -5 -40 -5 -90z"/>
<path d="M3931 1656 c-15 -18 -3 -46 19 -46 20 0 32 23 24 45 -8 19 -28 19
-43 1z"/>
<path d="M4280 1520 l0 -150 30 0 30 0 0 150 0 150 -30 0 -30 0 0 -150z"/>
<path d="M5890 1520 l0 -150 25 0 c21 0 25 5 25 28 0 26 15 52 31 52 3 0 19
-18 34 -40 21 -31 34 -40 56 -40 16 0 29 3 29 8 0 4 -16 27 -35 51 -19 24 -35
51 -35 59 0 8 17 33 37 56 l38 41 -28 3 c-22 3 -37 -7 -77 -50 l-50 -53 0 93
c0 91 0 92 -25 92 l-25 0 0 -150z"/>
<path d="M3270 1630 c-26 -26 -26 -80 0 -108 12 -12 26 -22 31 -22 21 0 69
-42 69 -60 0 -25 -40 -35 -81 -21 -45 15 -49 14 -49 -13 0 -29 16 -36 84 -36
65 0 96 24 96 75 0 39 -20 64 -72 91 -32 16 -48 31 -48 46 0 17 38 26 72 19
32 -8 37 -6 42 12 7 28 -9 37 -71 37 -40 0 -58 -5 -73 -20z"/>
<path d="M4410 1510 l0 -140 26 0 27 0 -5 105 c-3 58 -1 102 3 98 10 -11 45
-71 67 -113 39 -77 52 -90 93 -90 l39 0 0 140 0 140 -31 0 -32 0 5 -105 c3
-57 1 -102 -3 -100 -4 3 -17 24 -29 47 -27 51 -38 70 -69 121 -19 31 -28 37
-57 37 l-34 0 0 -140z"/>
<path d="M4963 1594 c-25 -38 -29 -54 -13 -54 6 0 10 -28 10 -63 0 -84 16
-107 76 -107 37 0 44 3 44 19 0 14 -8 21 -27 23 -27 3 -28 6 -31 66 l-3 62 31
0 c25 0 30 4 30 25 0 21 -5 25 -30 25 -23 0 -30 4 -30 20 0 32 -33 23 -57 -16z"/>
<path d="M3495 1560 c-26 -27 -29 -38 -29 -87 1 -49 5 -60 28 -80 32 -27 100
-31 133 -8 27 19 45 81 37 124 -9 44 -56 81 -103 81 -28 0 -44 -7 -66 -30z
m107 -34 c13 -18 9 -81 -6 -101 -12 -16 -19 -18 -43 -10 -22 8 -29 17 -31 44
-5 47 5 79 26 83 21 5 45 -2 54 -16z"/>
<path d="M3747 1570 c-50 -40 -56 -113 -15 -173 19 -26 24 -28 77 -25 49 3 56
6 59 25 3 20 -1 22 -39 20 -36 -2 -45 2 -57 24 -30 52 6 111 62 102 26 -4 35
-1 40 13 9 23 -9 34 -60 34 -26 0 -51 -7 -67 -20z"/>
<path d="M3920 1480 l0 -110 30 0 30 0 0 88 c0 112 -6 132 -36 132 -24 0 -24
-1 -24 -110z"/>
<path d="M4068 1579 c-32 -18 -10 -39 41 -36 41 2 46 0 49 -20 3 -21 -1 -23
-40 -23 -59 0 -88 -22 -88 -65 0 -18 7 -41 16 -49 20 -21 83 -20 106 1 17 15
18 15 18 0 0 -10 8 -17 20 -17 19 0 20 7 20 94 0 87 -2 96 -22 110 -25 18 -94
21 -120 5z m90 -136 c-2 -23 -9 -29 -34 -31 -21 -2 -33 2 -37 12 -8 21 19 46
49 46 22 0 25 -4 22 -27z"/>
<path d="M4752 1572 c-49 -38 -49 -152 1 -187 21 -15 101 -21 131 -9 9 3 16
14 16 25 0 16 -6 17 -50 12 -51 -6 -80 6 -80 33 0 11 16 14 65 14 l65 0 0 44
c0 36 -5 48 -26 65 -33 26 -90 27 -122 3z m92 -38 c26 -25 19 -34 -29 -34 -46
0 -58 13 -33 38 17 17 44 15 62 -4z"/>
<path d="M5103 1573 c15 -54 50 -180 53 -190 2 -7 19 -13 37 -13 34 0 35 1 41
49 4 27 12 67 20 87 l13 39 7 -40 c4 -22 12 -61 18 -87 11 -44 14 -48 42 -48
30 0 32 3 54 78 12 42 25 92 28 110 6 29 4 32 -17 32 -22 0 -27 -8 -45 -77
-22 -82 -23 -82 -45 12 -13 56 -16 60 -44 63 l-31 3 -19 -86 c-22 -94 -19 -96
-46 28 -11 54 -14 57 -42 57 -23 0 -28 -4 -24 -17z"/>
<path d="M5489 1561 c-25 -26 -29 -37 -29 -86 0 -76 27 -105 98 -105 68 0 96
30 96 105 1 46 -3 58 -28 84 -41 43 -95 43 -137 2z m109 -75 c3 -51 -9 -76
-39 -76 -28 0 -49 28 -49 68 0 56 23 77 65 62 15 -6 21 -18 23 -54z"/>
<path d="M5710 1480 l0 -110 30 0 30 0 0 68 c0 71 16 102 52 102 9 0 18 11 20
25 4 20 1 25 -15 25 -12 0 -31 -9 -43 -21 l-22 -21 -7 21 c-3 12 -15 21 -26
21 -18 0 -19 -8 -19 -110z"/>
<path d="M3083 1490 c-42 -31 -151 -60 -219 -60 -53 0 -90 -24 -104 -66 -15
-43 -8 -123 11 -136 8 -5 47 -6 88 -3 100 8 164 48 204 127 15 30 27 60 27 66
0 6 9 31 20 56 10 25 18 46 17 46 -1 -1 -21 -14 -44 -30z"/>
<path d="M2388 1448 c-42 -24 -52 -45 -43 -87 5 -23 17 -34 57 -51 55 -24 66
-22 47 8 -10 15 -10 34 -3 75 16 84 7 93 -58 55z"/>
<path d="M2475 1330 c3 -14 8 -40 12 -58 9 -52 85 -119 168 -149 118 -42 112
-41 89 -7 -11 16 -26 43 -33 61 -11 27 -20 33 -63 43 -58 12 -136 66 -167 115
-12 19 -12 18 -6 -5z"/>
<path d="M2747 1199 c-14 -8 -12 -15 15 -59 17 -28 38 -51 47 -51 29 -2 46 2
60 17 13 12 11 14 -15 20 -37 7 -60 24 -77 56 -10 20 -17 24 -30 17z"/>
<path d="M3251 1196 c-29 -35 11 -109 41 -77 11 10 10 12 -2 11 -31 -5 -40 1
-40 23 0 29 18 47 38 40 10 -4 13 -2 8 5 -10 16 -31 15 -45 -2z"/>
<path d="M3330 1189 c-6 -11 -9 -28 -7 -37 4 -13 5 -12 6 4 2 31 27 50 46 34
31 -26 7 -76 -31 -65 -13 4 -12 2 3 -6 29 -15 53 3 53 40 0 49 -49 70 -70 30z"/>
<path d="M3424 1194 c3 -9 6 -31 6 -50 0 -33 1 -34 39 -34 l39 0 -6 48 c-6 62
-12 67 -12 9 0 -43 -2 -47 -25 -47 -23 0 -25 4 -25 45 0 26 -5 45 -11 45 -6 0
-8 -7 -5 -16z"/>
<path d="M3540 1160 c0 -29 3 -50 7 -46 7 7 5 87 -3 95 -2 2 -4 -20 -4 -49z"/>
<path d="M3582 1181 c-30 -41 -28 -50 3 -16 15 15 25 31 23 37 -2 5 -13 -4
-26 -21z"/>
<path d="M3655 1200 c-4 -6 3 -9 16 -7 12 1 24 -4 26 -10 3 -8 -4 -13 -15 -13
-11 0 -25 -7 -32 -15 -17 -20 1 -40 35 -40 22 -1 25 3 25 35 0 37 -14 60 -36
60 -7 0 -16 -4 -19 -10z m45 -54 c0 -18 -30 -30 -43 -17 -5 5 -6 14 -3 20 10
16 46 13 46 -3z"/>
<path d="M3757 1203 c-4 -3 -7 -20 -6 -37 l1 -31 9 33 c13 45 33 36 40 -19 l6
-44 1 53 c2 48 0 52 -21 52 -13 0 -27 -3 -30 -7z"/>
<path d="M3841 1163 c-1 -52 0 -53 28 -53 37 0 59 24 41 45 -7 8 -23 15 -36
15 -16 0 -24 7 -27 23 -2 12 -5 -2 -6 -30z m54 -23 c0 -8 -10 -16 -22 -18 -18
-3 -23 2 -23 18 0 16 5 21 23 18 12 -2 22 -10 22 -18z"/>
<path d="M3940 1160 c0 -27 5 -50 10 -50 6 0 10 11 10 25 0 20 5 25 24 25 19
0 26 -6 29 -27 2 -16 4 -3 4 27 0 30 -2 45 -4 33 -6 -31 -53 -33 -53 -3 0 11
-4 20 -10 20 -5 0 -10 -22 -10 -50z"/>
<path d="M4066 1201 c-3 -5 5 -8 19 -8 14 0 22 3 19 8 -3 5 -11 9 -19 9 -8 0
-16 -4 -19 -9z"/>
<path d="M4151 1192 c-7 -13 -6 -23 2 -31 9 -9 9 -16 -1 -31 -7 -11 -9 -20 -4
-20 4 0 13 9 20 21 8 12 19 18 28 15 8 -3 14 -1 14 4 0 6 -12 10 -26 10 -19 0
-25 4 -22 18 2 10 12 17 26 16 12 0 22 3 22 8 0 16 -49 8 -59 -10z"/>
<path d="M4302 1198 c-27 -27 -8 -89 28 -87 10 0 7 4 -7 11 -38 18 -30 75 10
69 4 0 7 4 7 9 0 14 -23 13 -38 -2z"/>
<path d="M4382 1198 c-7 -7 -12 -24 -12 -38 0 -14 5 -31 12 -38 15 -15 45 -15
54 0 5 8 2 9 -11 5 -18 -7 -45 8 -45 24 0 5 14 9 30 9 23 0 30 5 30 19 0 28
-37 40 -58 19z m48 -19 c0 -5 -12 -9 -26 -9 -22 0 -24 2 -14 14 12 15 40 11
40 -5z"/>
<path d="M4473 1198 c9 -7 18 -31 20 -53 l4 -40 1 47 c2 35 6 48 20 51 9 3 -1
5 -22 6 -34 1 -37 -1 -23 -11z"/>
<path d="M4551 1162 l-1 -53 33 3 c27 2 32 7 32 28 0 20 -6 26 -27 28 -18 2
-28 10 -31 25 -2 12 -5 -2 -6 -31z m54 -22 c0 -8 -10 -16 -22 -18 -18 -3 -23
2 -23 18 0 16 5 21 23 18 12 -2 22 -10 22 -18z"/>
<path d="M4083 1169 c-23 -7 -33 -16 -33 -30 0 -24 25 -36 44 -20 7 6 16 8 19
4 4 -3 7 8 7 25 0 18 -1 32 -2 31 -2 0 -18 -5 -35 -10z m27 -18 c0 -5 -7 -14
-15 -21 -18 -15 -42 1 -31 19 8 13 46 15 46 2z"/>
</g>
</svg>
